<?xml version="1.0"?><svg version="1.2" baseProfile="tiny-ps" viewBox="0 0 300 300" xmlns="http://www.w3.org/2000/svg" xmlns:xlink="http://www.w3.org/1999/xlink"><title>Serenity Travels</title><g><g fill="#2979dc" transform="matrix(.1 0 0 -.1 0 300)"><path d="M1493 2923c9-2 23-2 30 0l12 5h-60l18-5zm-110-10c9-2 25-2 35 0l17 5h-70l18-5zm200 0c9-2 25-2 35 0l17 5h-70l18-5zm97-4v-9h25c14 0 25 2 25 4s-11 6-25 8l-25 5v-8zm-405-9-6-10 8 1c4 0 17 4 28 9l20 9h-22c-12 1-25-3-28-9zm513-12 10-10 18 4 19 4-28 6-29 6 10-10zm-608-8-15-10 10 1c6 0 19 4 30 9l20 9h-15c-8 0-22-4-30-9zm-79-21c-13-5-22-11-20-14 8-7 49 7 49 16 0 5-1 9-2 8-2 0-14-5-27-10zm784 1c3-5 16-10 28-9h22l-20 9c-11 5-24 9-28 9l-8 1 6-10zm105-45c14-7 27-11 30-9 6 7-22 24-40 23h-15l25-14zm-992-2c-10-2-18-9-18-14v-10l23 12c37 20 36 23-5 12zm1062-28c0-2 14-11 30-20l30-16v9c0 5-11 14-25 20-28 13-35 14-35 7zm-1151-24c-13-11-19-20-14-20 14 0 50 28 43 34-3 3-16-3-29-14zm1257-46c10-8 23-15 28-15h8l-12 15c-7 8-20 15-28 15h-16l20-15zm126-19-13-34-19 5-20 5v-9c0-5 5-14 11-20l10-10-35-23c-41-25-43-31-17-47l19-12 37 10 36 10 45-36c25-21 44-40 42-44s-36-36-76-70l-72-62 5-9 5-8 49 2 49 2 17 17 16 17 20-10 19-11 7 16c3 9 17 21 31 26l25 10 26-25c14-13 44-36 65-50l39-26h67v23c0 12-9 37-20 55l-20 32-45 32-45 32v56h21l-7 35-6 35 12 15 12 15-10 13c-5 6-12 23-14 36-1 14-8 26-13 28l-11 3-43-75c-23-41-46-75-50-75s-27 14-49 30l-42 30v79l-19 11c-27 14-25 14-39-24zm-1466 9c-11-8-18-17-15-19 2-3 15 4 29 14 14 11 21 20 15 19-5 0-19-6-29-14zm565-15c-190-27-370-125-512-278l-64-69-44-77c-24-42-57-116-74-164l-31-87-4-137-4-137 11-65c17-95 54-222 113-381l52-140 97-195c131-266 271-504 401-683 27-38 47-71 45-74-9-9-119 28-186 62-36 18-94 53-128 78l-62 46-54 66c-30 37-70 94-88 128l-32 61 59 53c32 29 62 53 67 53 4 0 7 7 7 15 0 20-38 95-48 95-4 0-55-41-114-91l-107-90 33-78c126-298 403-498 732-526l80-7 93 12 93 12 84 28c103 35 173 74 270 152l75 59 61 82 61 82 39 83c22 45 38 89 36 96-3 13-200 186-211 186-4 0-57-88-57-94 0-1 31-28 70-60l70-58-37-72-37-71-90-91-91-91-68-38c-65-36-194-85-222-85h-14l103 153c276 407 497 866 594 1232l26 100v310l-28 85c-97 294-308 503-590 584l-85 25-113 5-113 5-64-9zm309-122c25-6 86-29 135-53l90-42 63-48 63-48 50-61c27-33 67-95 89-137l39-75 22-80 23-79v-220l-23-95c-35-143-102-330-176-490-36-80-69-148-73-152l-7-7-165 140c-91 77-197 167-237 199l-71 60-238-201-238-201-24 48c-84 165-177 406-218 564l-25 95-6 105-6 105 17 85 18 85 33 71c114 247 324 407 585 445l55 8 90-5c50-3 110-10 135-16zm31-1511c110-93 203-175 206-183l5-13-53-93c-135-236-344-548-367-548-22 1-213 286-342 509l-83 144 39 32c22 18 116 98 209 178 94 80 173 145 177 144s98-78 209-170zm-272 1143c-26-4-67-17-92-28l-46-21-52-48-51-48-31-60-32-60v-200l27-57 27-57 47-51 47-50 56-27 56-28h210l67 33 67 33 37 42c20 23 50 70 66 105l30 63 5 64 6 63-22 68-21 69-35 47-35 48-48 35c-53 39-114 61-187 68l-50 5-46-8zm166-129c22-10 55-31 74-47l34-28 23-51 24-50v-130l-19-41c-23-51-75-104-127-130l-39-19h-150l-47 27-47 28-31 37-31 38-16 54-15 54 5 48 6 48 20 38c24 48 75 97 126 122l40 20h65l65 1 40-19zM1377 953c-4-3-7-30-7-60v-53h120v120h-53c-30 0-57-3-60-7zm180 0c-4-3-7-30-7-60v-53h120v120h-53c-30 0-57-3-60-7zm-180-180c-4-3-7-30-7-60v-53h120v120h-53c-30 0-57-3-60-7zm173-53v-60h120v120h-120v-60zM745 2640l-18-20h10c13 0 38 29 31 35-3 3-13-4-23-15zm-76-76-24-27 14 5c13 4 49 48 39 48-2 0-15-12-29-26zm-67-75c-19-30-8-34 12-4 9 14 13 25 9 25-5 0-14-9-21-21zm-60-79c-6-11-12-22-12-25 0-11 20 6 30 26l11 19h-8c-5 0-14-9-21-20zm-50-85c-7-15-11-30-8-32 7-7 28 36 24 49l-4 10-12-27zm-50-100-12-25h9c4 0 13 11 19 25l12 25h-9c-4 0-13-11-19-25zm-36-91c-10-38 0-41 12-5l11 31h-8c-5 0-12-12-15-26z"/></g><g fill="#2463c1" transform="matrix(.1 0 0 -.1 0 300)"><path d="M1493 2923c9-2 23-2 30 0l12 5h-60l18-5zm-110-10c9-2 25-2 35 0l17 5h-70l18-5zm200 0c9-2 25-2 35 0l17 5h-70l18-5zm97-4v-9h25c14 0 25 2 25 4s-11 6-25 8l-25 5v-8zm-405-9-6-10 8 1c4 0 17 4 28 9l20 9h-22c-12 1-25-3-28-9zm513-12 10-10 18 4 19 4-28 6-29 6 10-10zm-608-8-15-10 10 1c6 0 19 4 30 9l20 9h-15c-8 0-22-4-30-9zm-79-21c-13-5-22-11-20-14 8-7 49 7 49 16 0 5-1 9-2 8-2 0-14-5-27-10zm784 1c3-5 16-10 28-9h22l-20 9c-11 5-24 9-28 9l-8 1 6-10zm105-45c14-7 27-11 30-9 6 7-22 24-40 23h-15l25-14zm-992-2c-10-2-18-9-18-14v-10l23 12c37 20 36 23-5 12zm1062-28c0-2 14-11 30-20l30-16v9c0 5-11 14-25 20-28 13-35 14-35 7zm-1151-24c-13-11-19-20-14-20 14 0 50 28 43 34-3 3-16-3-29-14zm1257-46c10-8 23-15 28-15h8l-12 15c-7 8-20 15-28 15h-16l20-15zm126-19-13-34-19 5-20 5v-9c0-5 5-14 11-20l10-10-35-23c-41-25-43-31-17-47l19-12 37 10 36 10 45-36c25-21 44-40 42-44s-36-36-76-70l-72-62 5-9 5-8 49 2 49 2 17 17 16 17 20-10 19-11 7 16c3 9 17 21 31 26l25 10 26-25c14-13 44-36 65-50l39-26h67v23c0 12-9 37-20 55l-20 32-45 32-45 32v56h21l-7 35-6 35 12 15 12 15-10 13c-5 6-12 23-14 36-1 14-8 26-13 28l-11 3-43-75c-23-41-46-75-50-75s-27 14-49 30l-42 30v79l-19 11c-27 14-25 14-39-24zm-1466 9c-11-8-18-17-15-19 2-3 15 4 29 14 14 11 21 20 15 19-5 0-19-6-29-14zm-81-65-18-20h10c13 0 38 29 31 35-3 3-13-4-23-15zm380-38c-90-45-166-104-246-190l-64-69-44-77c-24-42-57-116-74-164l-31-87-4-137-4-137 11-65c17-95 54-222 113-381l52-140 97-195c131-266 271-504 401-683 27-38 47-71 45-74-9-9-119 28-186 62-36 18-94 53-128 78l-62 46-54 66c-30 37-70 94-88 128l-32 61 59 53c32 29 62 53 67 53 4 0 7 7 7 15 0 20-38 95-48 95-4 0-55-41-114-91l-107-90 33-78c126-298 403-498 732-526l80-7 93 12 93 12 84 28c103 35 173 74 270 152l75 59 61 82 61 82 39 83c22 45 38 89 36 96-3 13-200 186-211 186-4 0-57-88-57-94 0-1 31-28 70-60l70-58-37-72-37-71-90-91-91-91-68-38c-65-36-194-85-222-85h-14l103 152c171 253 322 525 431 778 72 167 155 406 175 508l13 64-51 50-50 51-7-39c-16-102-51-240-91-355-39-114-164-403-182-421l-7-7-165 140c-91 77-197 167-237 199l-71 60-238-201-238-201-24 48c-84 165-177 406-218 564l-25 95-6 105-6 105 17 85 18 85 33 71c84 183 214 312 392 389l72 32-32 29c-18 16-41 34-52 40l-21 11-69-35zm606-1545c110-93 203-175 206-183l5-13-53-93c-135-236-344-548-367-548-22 1-213 286-342 509l-83 144 39 32c22 18 116 98 209 178 94 80 173 145 177 144s98-78 209-170zm-354-104c-4-3-7-30-7-60v-53h120v120h-53c-30 0-57-3-60-7zm180 0c-4-3-7-30-7-60v-53h120v120h-53c-30 0-57-3-60-7zm-180-180c-4-3-7-30-7-60v-53h120v120h-53c-30 0-57-3-60-7zm173-53v-60h120v120h-120v-60zM669 2564l-24-27 14 5c13 4 49 48 39 48-2 0-15-12-29-26zm-67-75c-19-30-8-34 12-4 9 14 13 25 9 25-5 0-14-9-21-21zm-60-79c-6-11-12-22-12-25 0-11 20 6 30 26l11 19h-8c-5 0-14-9-21-20zm-50-85c-7-15-11-30-8-32 7-7 28 36 24 49l-4 10-12-27zm-50-100-12-25h9c4 0 13 11 19 25l12 25h-9c-4 0-13-11-19-25zm1017-25c-26-4-67-17-92-28l-46-21-52-48-51-48-31-60-32-60v-200l27-57 27-57 47-51 47-50 56-27 56-28h210l67 33 67 33 37 42c20 23 50 70 66 105l30 63 5 64 6 63-22 68-21 69-35 47-35 48-48 35c-53 39-114 61-187 68l-50 5-46-8zm166-129c22-10 55-31 74-47l34-28 23-51 24-50v-130l-19-41c-23-51-75-104-127-130l-39-19h-150l-47 27-47 28-31 37-31 38-16 54-15 54 5 48 6 48 20 38c24 48 75 97 126 122l40 20h65l65 1 40-19zm-1219 63c-10-38 0-41 12-5l11 31h-8c-5 0-12-12-15-26z"/></g><g fill="#144dab" transform="matrix(.1 0 0 -.1 0 300)"><path d="M1493 2923c9-2 23-2 30 0l12 5h-60l18-5zm-110-10c9-2 25-2 35 0l17 5h-70l18-5zm200 0c9-2 25-2 35 0l17 5h-70l18-5zm97-4v-9h25c14 0 25 2 25 4s-11 6-25 8l-25 5v-8zm-405-9-6-10 8 1c4 0 17 4 28 9l20 9h-22c-12 1-25-3-28-9zm513-12 10-10 18 4 19 4-28 6-29 6 10-10zm-608-8-15-10 10 1c6 0 19 4 30 9l20 9h-15c-8 0-22-4-30-9zm-79-21c-13-5-22-11-20-14 8-7 49 7 49 16 0 5-1 9-2 8-2 0-14-5-27-10zm784 1c3-5 16-10 28-9h22l-20 9c-11 5-24 9-28 9l-8 1 6-10zm105-45c14-7 27-11 30-9 6 7-22 24-40 23h-15l25-14zm-992-2c-10-2-18-9-18-14v-10l23 12c37 20 36 23-5 12zm1062-28c0-2 14-11 30-20l30-16v9c0 5-11 14-25 20-28 13-35 14-35 7zm-1151-24c-13-11-19-20-14-20 14 0 50 28 43 34-3 3-16-3-29-14zm1257-46c10-8 23-15 28-15h8l-12 15c-7 8-20 15-28 15h-16l20-15zm126-19-13-34-19 5-20 5v-9c0-5 5-14 11-20l10-10-35-23c-41-25-43-31-17-47l19-12 37 10 36 10 45-36c25-21 44-40 42-44s-36-36-76-70l-72-62 5-9 5-8 49 2 49 2 17 17 16 17 20-10 19-11 7 16c3 9 17 21 31 26l25 10 26-25c14-13 44-36 65-50l39-26h67v23c0 12-9 37-20 55l-20 32-45 32-45 32v56h21l-7 35-6 35 12 15 12 15-10 13c-5 6-12 23-14 36-1 14-8 26-13 28l-11 3-43-75c-23-41-46-75-50-75s-27 14-49 30l-42 30v79l-19 11c-27 14-25 14-39-24zm-1466 9c-11-8-18-17-15-19 2-3 15 4 29 14 14 11 21 20 15 19-5 0-19-6-29-14zm-81-65-18-20h10c13 0 38 29 31 35-3 3-13-4-23-15zm-76-76-24-27 14 5c13 4 49 48 39 48-2 0-15-12-29-26zm-67-75c-19-30-8-34 12-4 9 14 13 25 9 25-5 0-14-9-21-21zm-60-79c-6-11-12-22-12-25 0-11 20 6 30 26l11 19h-8c-5 0-14-9-21-20zm304-34c-48-53-114-174-149-274l-31-87-4-137-4-137 11-65c17-95 54-222 113-381l52-140 97-195c131-266 271-504 401-683 27-38 47-71 45-74-9-9-119 28-186 62-36 18-94 53-128 78l-62 46-54 66c-30 37-70 94-88 128l-32 61 59 53c32 29 62 53 67 53 4 0 7 7 7 15 0 20-38 95-48 95-4 0-55-41-114-91l-107-90 33-78c126-298 403-498 732-526l80-7 93 12 93 12 84 28c103 35 173 74 270 152l75 59 61 82 61 82 39 83c22 45 38 89 36 96-3 13-200 186-211 186-4 0-57-88-57-94 0-1 31-28 70-60l70-58-37-72-37-71-90-91-91-91-68-38c-65-36-194-85-222-85h-14l103 152c175 260 330 540 441 801l67 159-38 39c-21 22-42 38-47 36-4-1-25-45-46-97s-62-144-90-204l-51-109-57 49c-32 26-114 96-183 154s-150 127-181 153l-57 47-238-201-238-201-24 48c-84 165-177 406-218 564l-25 95-6 105-6 105 17 85 17 85 44 90c24 50 62 114 84 142 22 29 37 52 32 50-5-1-25 13-45 31l-37 33-33-35zm885-1319c110-93 203-175 206-183l5-13-53-93c-135-236-344-548-367-548-22 1-213 286-342 509l-83 144 39 32c22 18 116 98 209 178 94 80 173 145 177 144s98-78 209-170zm-354-104c-4-3-7-30-7-60v-53h120v120h-53c-30 0-57-3-60-7zm180 0c-4-3-7-30-7-60v-53h120v120h-53c-30 0-57-3-60-7zm-180-180c-4-3-7-30-7-60v-53h120v120h-53c-30 0-57-3-60-7zm173-53v-60h120v120h-120v-60zM492 2325c-7-15-11-30-8-32 7-7 28 36 24 49l-4 10-12-27zm-50-100-12-25h9c4 0 13 11 19 25l12 25h-9c-4 0-13-11-19-25zm-36-91c-10-38 0-41 12-5l11 31h-8c-5 0-12-12-15-26zm832-61c-14-16-39-53-54-83l-29-55v-200l27-57 27-57 47-51 47-50 56-27 56-28h212l68 35 69 35 43 53c24 29 43 58 43 64v11l-7-7-7-6-36 35-37 36-27-40c-31-45-83-82-140-101l-39-13-58 6-59 5-44 26c-25 14-59 43-76 63l-31 38-16 54-15 54 5 48 6 48 19 38c11 21 29 47 41 57 12 11 21 25 21 31 0 10-70 65-83 65-2 0-15-12-29-27z"/></g><g fill="#1c3c93" transform="matrix(.1 0 0 -.1 0 300)"><path d="m689 2083-22-68-5-137-4-137 11-65c17-95 54-222 113-381l52-140 97-195c131-266 271-504 401-683 27-38 47-71 45-74-9-9-119 28-186 62-36 18-94 53-128 78l-62 46-54 66c-30 37-70 94-88 128l-32 61 59 53c32 29 62 53 67 53 4 0 7 7 7 15 0 20-38 95-48 95-4 0-55-41-114-91l-107-90 33-78c126-298 403-498 732-526l80-7 93 12 93 12 84 28c103 35 173 74 270 152l75 59 61 82 61 82 39 83c22 45 38 89 36 96-3 13-200 186-211 186-4 0-57-88-57-94 0-1 31-28 70-60l70-58-37-72-37-71-90-91-91-91-68-38c-65-36-194-85-222-85h-14l103 153c129 190 338 553 375 650l10 26-36 35-36 34-12-4c-6-3-23-30-38-60l-28-56-57 48c-31 27-113 96-182 154s-150 127-181 153l-57 47-238-201-238-201-27 55c-88 173-186 434-226 599l-18 73v130l1 130 16 60 17 60-14 8c-9 4-26 19-40 33-13 13-29 24-34 24h-10l-22-67zm1042-1026c110-93 203-175 206-183l5-13-53-93c-135-236-344-548-367-548-22 1-213 286-342 509l-83 144 39 32c22 18 116 98 209 178 94 80 173 145 177 144s98-78 209-170zm-354-104c-4-3-7-30-7-60v-53h120v120h-53c-30 0-57-3-60-7zm180 0c-4-3-7-30-7-60v-53h120v120h-53c-30 0-57-3-60-7zm-180-180c-4-3-7-30-7-60v-53h120v120h-53c-30 0-57-3-60-7zm173-53v-60h120v120h-120v-60zm-398 1053c3-23 17-67 31-97l26-55 47-51 47-50 55-27 56-27 95-4 96-5-32 27c-18 15-36 27-40 27s-21 13-38 28c-16 16-54 41-83 57l-53 28-27 32c-42 49-54 61-99 100-24 20-43 33-43 29 0-5-10 0-21 11l-22 19 5-42z"/></g><g fill="#162576" transform="matrix(.1 0 0 -.1 0 300)"><path d="M675 1665c5-66 44-198 107-370l52-140 97-195c131-266 271-504 401-683 27-38 47-71 45-74-9-9-119 28-186 62-36 18-94 53-128 78l-62 46-54 66c-30 37-70 94-88 128l-32 61 59 53c32 29 62 53 67 53 4 0 7 7 7 15 0 20-38 95-48 95-4 0-55-41-114-91l-107-90 33-78c126-298 403-498 732-526l80-7 93 12 93 12 84 28c103 35 173 74 269 151l74 58 50 67c28 37 51 71 51 75 0 5-10 9-22 9h-23l15 10 15 10h-65v15c0 23-14 18-32-13-10-16-53-62-96-104l-79-75-67-38c-64-36-192-85-221-85h-14l103 153c92 136 206 320 206 332 0 3-7 5-17 5h-16l6 7 7 6-23 12c-12 6-21 16-20 22l2 11-16-2-17-3-45-74c-133-221-290-449-309-449-22 1-214 287-342 509l-82 143 13 13c8 6 75 63 149 125s140 118 145 123l10 10-12-7-13-7v32l-10-6-10-6v21h-16c-8 0-22 7-30 15l-15 15-131-111-132-111-24 48c-80 157-239 573-225 588 3 2-6 2-19-1l-23-5 15 11 15 11h-45v21l-10-6-10-6v32l-10-6-10-6v32l-9-6-9-5-6 17c-3 10-4-4-1-32zm702-712c-4-3-7-30-7-60v-53h120v120h-53c-30 0-57-3-60-7zm180 0c-4-3-7-30-7-60v-53h120v59l-15 14-15 15 13 5 12 5-13 1-13 1 6 10 6 10h-44c-24 0-47-3-50-7zm-180-180c-4-3-7-30-7-60v-53h120v120h-53c-30 0-57-3-60-7zm173-53v-60h120v120h-120v-60z"/></g><g fill="#100b58" transform="matrix(.1 0 0 -.1 0 300)"><path d="M979 862c89-178 246-437 353-585 27-38 47-71 45-74-9-9-119 28-186 62-36 18-94 53-128 78l-62 46-54 66c-30 37-70 94-88 128l-32 61 59 53c32 29 62 53 67 53 4 0 7 7 7 15 0 20-38 95-48 95-4 0-55-41-114-91l-107-90 33-78c126-298 403-498 732-526l80-7 93 12 93 12 82 28c44 15 93 33 109 41l28 12-4 11c-3 6-9 10-14 9-6-1-25 13-43 32l-33 34-16-8c-24-13-142-51-158-51h-14l44 63 44 62-26 21c-14 12-35 26-46 32l-21 10-62-84c-35-46-66-84-70-84-20 1-200 265-319 469-40 69-73 122-73 117 0-4-33 21-72 56-40 35-86 72-101 81l-28 18 50-99z"/></g></g></svg>