<?xml version="1.0" encoding="UTF-8" standalone="no"?><svg xmlns="http://www.w3.org/2000/svg" xmlns:xlink="http://www.w3.org/1999/xlink" fill="#152171" height="1602.3" preserveAspectRatio="xMidYMid meet" version="1" viewBox="298.4 197.7 1405.4 1602.3" width="1405.4" zoomAndPan="magnify"><g id="change1_1"><path d="M1686,530.6c-19.3-8.3-46.4-21.7-75.9-36.9v-28.1c0-5.9-4.8-10.7-10.7-10.7h-0.1c-5.9,0-10.7,4.8-10.7,10.7v16.8 c-28-14.7-56.9-30.3-82.2-44.2v-26.7c0-5.9-4.8-10.7-10.7-10.7h-0.1c-5.9,0-10.7,4.8-10.7,10.7v14.8c-32.8-18.1-55.8-31.1-56-31.2 V270.6c0-20.2-3.9-36.9-8.8-50c-1.7-4.5-4.5-9.5-7.5-14.2c-5.5-8.7-18.3-8.7-23.7,0.1c-2.8,4.5-5.5,9.4-7.1,13.8 c-4.9,13-8.8,29.8-8.8,50.3l0,124.6c-0.2,0.1-23.2,13.1-56.1,31.2v-14.8c0-5.9-4.8-10.7-10.7-10.7h-0.1c-5.9,0-10.7,4.8-10.7,10.7 v26.7c-25.4,13.9-54.2,29.5-82.2,44.2v-16.8c0-5.9-4.8-10.7-10.7-10.7h-0.1c-5.9,0-10.7,4.8-10.7,10.7v28.1 c-29.4,15.2-56.6,28.6-75.8,36.8c-6.3,2.7-17.8,13.8-15.3,20.1c1.9,4.7,14.9,3.4,19.8,2.1c48.2-12.7,142.1-37.5,190.9-43.5 c15.2-1.9,61.8,0,62,0c0,0,10.1,183.5,11.2,188.6l-71.3,40.1c-6.6,3.7-11,10.3-12,17.7c17.6-2.8,73.4-11.6,93.5-14.6 c0.6,2.2,1.1,4.3,1.7,6.3c0.9,3.3,1.3,6.4,1.8,8.8c0.5,2.4,1.3,3.9,3,3.9c1.7,0,2.4-1.6,3-4c0.5-2.4,0.9-5.6,1.8-8.8 c0.6-2,1.2-4.2,1.8-6.5c18.1,2.6,72.2,11.9,91.8,15.2c-1.3-6.7-5.4-12.6-11.4-16.2l-70.4-41.7c1.1-5.2,11.3-188.9,11.3-188.9 c0.3,0,46.8-1.9,62,0c48.8,6,142.7,30.9,190.9,43.5c4.9,1.3,17.9,2.6,19.8-2.1C1703.8,544.4,1692.2,533.3,1686,530.6z" fill="inherit"/><path d="M402.6,1742.3c-7.4,1.7-11.5,2.6-11.5,2.6c-2.7,0.6-4.4,3.2-3.8,5.9c0.5,2.3,2.6,3.9,4.9,3.9c0.3,0,0.7,0,1-0.1 c0.2,0,4.3-0.9,11.8-2.7c2.7-0.6,4.3-3.3,3.7-6C407.9,1743.3,405.3,1741.7,402.6,1742.3z" fill="inherit"/><path d="M448.5,1730.5c-1.3,0.4-2.6,0.7-3.8,1c-2.7,0.7-4.2,3.5-3.5,6.1c0.6,2.2,2.6,3.7,4.8,3.7c0.4,0,0.9-0.1,1.3-0.2 c1.3-0.3,2.5-0.7,3.8-1.1c2.7-0.7,4.2-3.5,3.5-6.1C453.9,1731.3,451.2,1729.7,448.5,1730.5z" fill="inherit"/><path d="M425.6,1736.6c-1.3,0.3-2.6,0.7-3.8,1c-2.7,0.7-4.3,3.4-3.6,6.1c0.6,2.3,2.6,3.8,4.8,3.8c0.4,0,0.8-0.1,1.2-0.2 c1.3-0.3,2.5-0.6,3.9-1c2.7-0.7,4.3-3.4,3.6-6.1C431,1737.5,428.3,1735.9,425.6,1736.6z" fill="inherit"/><path d="M576.7,1689.4c-7.3,2.7-14.8,5.4-22.4,8c-2.6,0.9-4,3.8-3.1,6.3c0.7,2.1,2.6,3.3,4.7,3.3c0.5,0,1.1-0.1,1.6-0.3 c7.6-2.7,15.1-5.4,22.5-8.1c2.6-1,3.9-3.8,3-6.4S579.3,1688.4,576.7,1689.4z" fill="inherit"/><path d="M952.3,1437.3c-2.3-1.5-5.4-0.9-6.9,1.4c-4.3,6.4-8.9,12.9-13.6,19.2c-1.6,2.2-1.2,5.3,1,7c0.9,0.7,1.9,1,3,1 c1.5,0,3-0.7,4-2c4.8-6.5,9.5-13.1,13.9-19.6C955.2,1441.9,954.6,1438.8,952.3,1437.3z" fill="inherit"/><path d="M888.6,1508.7c-5.4,5.5-11.1,10.9-17,16.3c-2,1.9-2.2,5-0.3,7c1,1.1,2.3,1.6,3.7,1.6c1.2,0,2.4-0.4,3.4-1.3 c6-5.5,11.9-11.1,17.4-16.7c1.9-2,1.9-5.1,0-7C893.7,1506.7,890.5,1506.8,888.6,1508.7z" fill="inherit"/><path d="M904.6,1491.5c-0.9,1-1.7,2-2.6,2.9c-1.8,2.1-1.7,5.2,0.4,7c1,0.9,2.1,1.3,3.3,1.3c1.4,0,2.7-0.6,3.7-1.7 c0.9-1,1.8-2,2.7-3c1.8-2.1,1.6-5.2-0.5-7C909.6,1489.2,906.4,1489.4,904.6,1491.5z" fill="inherit"/><path d="M918.7,1082.1c1.3-2.4,0.3-5.5-2.2-6.7c-1.2-0.6-2.5-1.2-3.7-1.8c-2.5-1.2-5.5-0.1-6.6,2.4c-1.2,2.5-0.1,5.5,2.4,6.6 c1.1,0.5,2.3,1.1,3.4,1.7c0.7,0.4,1.5,0.6,2.3,0.6C916,1084.8,917.8,1083.9,918.7,1082.1z" fill="inherit"/><path d="M490.4,1718.4c-7.6,2.3-15.2,4.6-22.8,6.8c-2.6,0.8-4.2,3.5-3.4,6.2c0.6,2.2,2.6,3.6,4.8,3.6c0.5,0,0.9-0.1,1.4-0.2 c7.6-2.2,15.3-4.5,22.9-6.8c2.6-0.8,4.1-3.6,3.3-6.2C495.8,1719,493,1717.6,490.4,1718.4z" fill="inherit"/><path d="M1010,1320.3c0.3-1.3,0.6-2.6,0.9-3.9c0.6-2.7-1.1-5.3-3.8-5.9c-2.7-0.6-5.3,1.1-5.9,3.8c-0.3,1.3-0.6,2.5-0.9,3.8 c-0.6,2.7,1.1,5.4,3.7,6c0.4,0.1,0.8,0.1,1.1,0.1C1007.4,1324.2,1009.5,1322.6,1010,1320.3z" fill="inherit"/><path d="M964.9,1417c-2.4-1.4-5.4-0.7-6.8,1.7c-0.7,1.1-1.4,2.2-2,3.4c-1.4,2.3-0.7,5.4,1.6,6.9c0.8,0.5,1.7,0.7,2.6,0.7 c1.7,0,3.3-0.8,4.2-2.4c0.7-1.1,1.4-2.3,2.1-3.4C968,1421.5,967.3,1418.5,964.9,1417z" fill="inherit"/><path d="M1001.5,1333.6c-2.6-0.8-5.4,0.7-6.2,3.3c-0.4,1.2-0.8,2.5-1.2,3.7c-0.8,2.6,0.6,5.4,3.2,6.3c0.5,0.2,1,0.2,1.5,0.2 c2.1,0,4.1-1.4,4.7-3.5c0.4-1.3,0.8-2.6,1.2-3.9C1005.6,1337.2,1004.1,1334.4,1001.5,1333.6z" fill="inherit"/><path d="M535.6,1703.9l-3.8,1.3c-2.6,0.9-4,3.7-3.1,6.3c0.7,2.1,2.6,3.4,4.7,3.4c0.5,0,1.1-0.1,1.6-0.3l3.8-1.3 c2.6-0.9,4-3.7,3.1-6.3C541,1704.4,538.2,1703,535.6,1703.9z" fill="inherit"/><path d="M856.8,1538c-1,0.8-2,1.7-3,2.5c-2.1,1.8-2.4,4.9-0.6,7c1,1.2,2.4,1.8,3.8,1.8c1.1,0,2.3-0.4,3.2-1.1 c1-0.9,2.1-1.7,3.1-2.6c2.1-1.8,2.4-4.9,0.6-7C862.1,1536.5,858.9,1536.2,856.8,1538z" fill="inherit"/><path d="M742.5,1615c-6.8,3.7-13.8,7.5-20.9,11.2c-2.4,1.3-3.4,4.3-2.1,6.7c0.9,1.7,2.6,2.7,4.4,2.7c0.8,0,1.6-0.2,2.3-0.6 c7.1-3.7,14.2-7.5,21.1-11.3c2.4-1.3,3.3-4.4,2-6.8C747.9,1614.5,744.9,1613.7,742.5,1615z" fill="inherit"/><path d="M763.1,1603.3c-1.1,0.7-2.3,1.3-3.4,2c-2.4,1.4-3.2,4.4-1.8,6.8c0.9,1.6,2.6,2.5,4.3,2.5c0.8,0,1.7-0.2,2.5-0.7 c1.2-0.7,2.3-1.3,3.5-2c2.4-1.4,3.2-4.4,1.8-6.8C768.5,1602.7,765.5,1601.9,763.1,1603.3z" fill="inherit"/><path d="M704,1635.1c-1.2,0.6-2.4,1.2-3.5,1.7c-2.5,1.2-3.5,4.2-2.3,6.7c0.9,1.8,2.6,2.8,4.5,2.8c0.7,0,1.5-0.2,2.2-0.5 c1.2-0.6,2.4-1.2,3.6-1.8c2.5-1.2,3.5-4.2,2.2-6.7C709.4,1634.9,706.4,1633.9,704,1635.1z" fill="inherit"/><path d="M661,1655.3c-7.1,3.2-14.5,6.4-21.8,9.4c-2.5,1.1-3.7,4-2.6,6.5c0.8,1.9,2.6,3,4.6,3c0.6,0,1.3-0.1,1.9-0.4 c7.4-3.1,14.8-6.3,21.9-9.5c2.5-1.1,3.6-4.1,2.5-6.6C666.5,1655.3,663.6,1654.1,661,1655.3z" fill="inherit"/><path d="M682.6,1645.4c-1.2,0.6-2.4,1.1-3.6,1.7c-2.5,1.2-3.6,4.1-2.4,6.6c0.8,1.8,2.6,2.9,4.5,2.9c0.7,0,1.4-0.1,2.1-0.5 c1.2-0.6,2.4-1.1,3.6-1.7c2.5-1.2,3.6-4.1,2.4-6.6C688.1,1645.3,685.1,1644.2,682.6,1645.4z" fill="inherit"/><path d="M783.4,1591c-1.1,0.7-2.2,1.4-3.4,2.1c-2.3,1.4-3.1,4.5-1.6,6.9c0.9,1.5,2.6,2.4,4.2,2.4c0.9,0,1.8-0.2,2.6-0.7 c1.1-0.7,2.3-1.4,3.4-2.1c2.3-1.5,3-4.5,1.6-6.9C788.8,1590.3,785.7,1589.6,783.4,1591z" fill="inherit"/><path d="M892.1,1076.3c2.2,0,4.2-1.5,4.8-3.7c0.7-2.7-0.9-5.4-3.5-6.1c-8.1-2.1-16.4-3.3-24.6-3.6c-2.8,0-5,2.1-5.1,4.8 c-0.1,2.8,2.1,5,4.8,5.1c7.5,0.2,15,1.3,22.3,3.2C891.2,1076.2,891.7,1076.3,892.1,1076.3z" fill="inherit"/><path d="M853.7,1068.4c-0.4-2.7-3-4.6-5.7-4.1c-1.4,0.2-2.7,0.5-4.1,0.7c-2.7,0.5-4.4,3.2-3.9,5.9c0.5,2.4,2.6,4,4.9,4 c0.3,0,0.7,0,1-0.1c1.2-0.2,2.5-0.5,3.7-0.7C852.3,1073.7,854.2,1071.1,853.7,1068.4z" fill="inherit"/><path d="M838.5,1552.8c-1,0.8-2.1,1.6-3.1,2.4c-2.2,1.7-2.6,4.8-0.9,7c1,1.3,2.5,2,4,2c1.1,0,2.1-0.3,3-1c1.1-0.8,2.1-1.6,3.2-2.4 c2.2-1.7,2.6-4.8,0.9-7C843.8,1551.5,840.6,1551.1,838.5,1552.8z" fill="inherit"/><path d="M819.5,1566.9c-6.3,4.5-12.8,9-19.5,13.4c-2.3,1.5-2.9,4.6-1.4,6.9c1,1.4,2.5,2.2,4.2,2.2c0.9,0,1.9-0.3,2.7-0.8 c6.7-4.5,13.4-9,19.8-13.6c2.2-1.6,2.8-4.7,1.2-6.9C824.8,1565.8,821.7,1565.3,819.5,1566.9z" fill="inherit"/><path d="M598.9,1681c-1.2,0.5-2.5,0.9-3.7,1.4c-2.6,1-3.9,3.9-2.9,6.4c0.8,2,2.6,3.2,4.7,3.2c0.6,0,1.2-0.1,1.8-0.3 c1.2-0.5,2.5-1,3.7-1.4c2.6-1,3.8-3.9,2.8-6.4C604.4,1681.3,601.5,1680,598.9,1681z" fill="inherit"/><path d="M621,1672.3l-3.7,1.5c-2.6,1-3.8,3.9-2.8,6.5c0.8,1.9,2.6,3.1,4.6,3.1c0.6,0,1.2-0.1,1.9-0.4l3.7-1.5 c2.6-1,3.8-3.9,2.7-6.5C626.4,1672.5,623.5,1671.2,621,1672.3z" fill="inherit"/><path d="M830.5,1073.7c-1-2.6-3.9-3.9-6.4-2.9c-1.3,0.5-2.6,1.1-3.9,1.7c-2.5,1.1-3.6,4.1-2.5,6.6c0.8,1.8,2.6,2.9,4.5,2.9 c0.7,0,1.4-0.1,2.1-0.5c1.1-0.5,2.2-1,3.4-1.4C830.2,1079.1,831.5,1076.2,830.5,1073.7z" fill="inherit"/><path d="M513,1711.3c-1.3,0.4-2.5,0.8-3.8,1.2c-2.6,0.8-4.1,3.6-3.2,6.3c0.7,2.1,2.6,3.5,4.7,3.5c0.5,0,1-0.1,1.5-0.2 c1.3-0.4,2.5-0.8,3.8-1.2c2.6-0.8,4.1-3.6,3.2-6.3C518.5,1711.9,515.7,1710.4,513,1711.3z" fill="inherit"/><path d="M777.5,1131.4c0.6,0.2,1.1,0.3,1.7,0.3c2,0,3.9-1.3,4.7-3.3c0.4-1.2,0.9-2.4,1.4-3.5c1-2.5-0.2-5.5-2.7-6.5 c-2.5-1-5.5,0.2-6.5,2.7c-0.5,1.3-1,2.6-1.5,3.9C773.5,1127.6,774.9,1130.5,777.5,1131.4z" fill="inherit"/><path d="M983.3,1162.9c0.6,1.2,1.1,2.3,1.7,3.5c0.9,1.8,2.6,2.9,4.5,2.9c0.7,0,1.4-0.2,2.1-0.5c2.5-1.2,3.6-4.1,2.4-6.6 c-0.6-1.2-1.2-2.4-1.8-3.7c-1.2-2.5-4.2-3.5-6.7-2.3C983.1,1157.5,982.1,1160.5,983.3,1162.9z" fill="inherit"/><path d="M773.6,1154.9c0.1,0,0.3,0,0.4,0c2.6,0,4.8-2,5-4.6c0.1-1.2,0.2-2.5,0.4-3.7c0.4-2.7-1.6-5.2-4.3-5.6 c-2.7-0.4-5.2,1.6-5.6,4.3c-0.2,1.4-0.3,2.8-0.4,4.2C768.8,1152.2,770.9,1154.6,773.6,1154.9z" fill="inherit"/><path d="M967.8,1401.7c-1.3,2.4-0.4,5.4,2,6.8c0.8,0.4,1.6,0.6,2.4,0.6c1.8,0,3.5-0.9,4.4-2.6c0.6-1.2,1.3-2.4,1.9-3.6 c1.3-2.4,0.4-5.4-2.1-6.7c-2.4-1.3-5.4-0.4-6.7,2.1C969,1399.4,968.4,1400.5,967.8,1401.7z" fill="inherit"/><path d="M974,1145.9c0.9,1.5,2.6,2.4,4.3,2.4c0.9,0,1.8-0.2,2.6-0.7c2.4-1.4,3.1-4.5,1.7-6.8c-0.7-1.2-1.4-2.3-2.1-3.5 c-1.5-2.3-4.5-3-6.9-1.6c-2.3,1.5-3,4.5-1.6,6.9C972.7,1143.7,973.3,1144.8,974,1145.9z" fill="inherit"/><path d="M787.1,1109.7c0.9,0.6,1.8,0.8,2.8,0.8c1.6,0,3.2-0.8,4.1-2.2c4.3-6.4,9.3-12.1,14.8-16.8c2.1-1.8,2.3-4.9,0.5-7 c-1.8-2.1-4.9-2.3-7-0.5c-6.2,5.3-11.8,11.6-16.6,18.8C784.2,1105,784.9,1108.1,787.1,1109.7z" fill="inherit"/><path d="M992.6,1184.3c1.1,2.9,2.2,6,3.2,8.9c1.5,4.4,2.8,8.8,4,13.2c0.6,2.2,2.6,3.7,4.8,3.7c0.4,0,0.8-0.1,1.3-0.2 c2.7-0.7,4.2-3.4,3.5-6.1c-1.2-4.6-2.6-9.3-4.1-13.8c-1-3.1-2.2-6.2-3.3-9.3c-1-2.6-3.8-3.9-6.4-2.9 C992.9,1178.9,991.7,1181.8,992.6,1184.3z" fill="inherit"/><path d="M1011.9,1267.1c-2.7-0.1-5.1,2-5.2,4.8c-0.3,7.6-1,15.4-2.1,23.2c-0.4,2.7,1.5,5.2,4.2,5.6c0.2,0,0.5,0,0.7,0 c2.4,0,4.6-1.8,4.9-4.3c1.1-8.1,1.9-16.2,2.2-24.2C1016.8,1269.5,1014.6,1267.2,1011.9,1267.1z" fill="inherit"/><path d="M928.2,1094.3c1,0.8,2.1,1.5,3.1,2.3c0.9,0.7,2,1,3,1c1.5,0,3-0.7,4-1.9c1.7-2.2,1.3-5.3-0.9-7c-1.1-0.8-2.2-1.7-3.3-2.5 c-2.2-1.6-5.3-1.1-7,1.1C925.5,1089.6,926,1092.7,928.2,1094.3z" fill="inherit"/><path d="M1007.9,1219.7c-2.7,0.5-4.5,3-4.1,5.7c0.2,1.3,0.4,2.6,0.6,3.8c0.4,2.5,2.5,4.2,4.9,4.2c0.2,0,0.5,0,0.7-0.1 c2.7-0.4,4.6-2.9,4.2-5.7c-0.2-1.3-0.4-2.7-0.6-4C1013.2,1221.1,1010.7,1219.3,1007.9,1219.7z" fill="inherit"/><path d="M1006.5,1248.6c0.1,1.3,0.1,2.6,0.2,3.9c0.1,2.7,2.3,4.8,5,4.8c0.1,0,0.1,0,0.2,0c2.7-0.1,4.9-2.4,4.8-5.2 c-0.1-1.4-0.1-2.7-0.2-4.1c-0.2-2.7-2.5-4.8-5.3-4.7C1008.4,1243.5,1006.3,1245.8,1006.5,1248.6z" fill="inherit"/><path d="M960.9,1126.7c1,1.3,2.5,1.9,4,1.9c1.1,0,2.1-0.3,3-1c2.2-1.7,2.6-4.8,0.9-7c-5.1-6.6-10.5-12.8-16.1-18.4 c-1.9-1.9-5.1-1.9-7,0c-1.9,1.9-1.9,5.1,0,7C951,1114.6,956.1,1120.4,960.9,1126.7z" fill="inherit"/><path d="M987.6,1359.1c-2.8,7.1-5.9,14.4-9.2,21.6c-1.2,2.5-0.1,5.5,2.4,6.6c0.7,0.3,1.4,0.5,2.1,0.5c1.9,0,3.7-1.1,4.5-2.9 c3.4-7.4,6.6-14.9,9.5-22.2c1-2.6-0.3-5.5-2.8-6.4C991.5,1355.2,988.6,1356.5,987.6,1359.1z" fill="inherit"/><path d="M774.4,1183c0.9,1.7,2.6,2.7,4.4,2.7c0.7,0,1.5-0.2,2.2-0.5c2.4-1.2,3.4-4.1,2.3-6.6c-1.5-3.2-2.6-6.6-3.4-10.2 c-0.6-2.7-3.2-4.4-5.9-3.8c-1,0.2-1.9,0.7-2.6,1.4c-1,0.1-1.9,0.5-2.7,1.2c-2.1,1.8-2.3,5-0.5,7 C770.7,1176.9,772.8,1179.9,774.4,1183z" fill="inherit"/><path d="M730.7,1152.7c1.2,0.3,2.4,0.6,3.6,1c0.5,0.1,0.9,0.2,1.4,0.2c2.1,0,4.1-1.4,4.8-3.6c0.8-2.6-0.7-5.4-3.4-6.2 c-1.3-0.4-2.6-0.8-4-1.1c-2.7-0.7-5.4,0.9-6.1,3.6C726.4,1149.3,728,1152,730.7,1152.7z" fill="inherit"/><path d="M751.3,1160.7c1.1,0.6,2.1,1.2,3.2,1.9c0.8,0.5,1.7,0.7,2.6,0.7c1.7,0,3.3-0.8,4.2-2.4c1.5-2.3,0.7-5.4-1.6-6.9 c-1.2-0.7-2.4-1.4-3.6-2.1c-2.4-1.3-5.4-0.5-6.8,1.9C748,1156.3,748.9,1159.4,751.3,1160.7z" fill="inherit"/><path d="M634.7,1316.3c-0.4-1.2-0.9-2.4-1.3-3.6c-0.9-2.6-3.7-4-6.3-3.1c-2.6,0.9-4,3.7-3.1,6.3c0.4,1.3,0.9,2.5,1.3,3.8 c0.7,2,2.6,3.3,4.7,3.3c0.6,0,1.1-0.1,1.7-0.3C634.3,1321.7,635.7,1318.9,634.7,1316.3z" fill="inherit"/><path d="M641.6,1343.9c2.5-1.2,3.4-4.2,2.2-6.7c-0.6-1.1-1.1-2.3-1.7-3.4c-1.2-2.5-4.2-3.5-6.7-2.3c-2.5,1.2-3.5,4.2-2.3,6.7 c0.6,1.2,1.2,2.4,1.8,3.6c0.9,1.7,2.6,2.7,4.4,2.7C640.1,1344.5,640.9,1344.3,641.6,1343.9z" fill="inherit"/><path d="M649.4,1175.7c1.3,0,2.6-0.5,3.6-1.5c0.9-0.9,1.7-1.7,2.6-2.6c2-1.9,2.1-5,0.2-7c-1.9-2-5-2.1-7-0.2c-1,0.9-2,1.9-2.9,2.9 c-1.9,2-1.9,5.1,0.1,7C646.9,1175.2,648.1,1175.7,649.4,1175.7z" fill="inherit"/><path d="M625.1,1211.7c0.6,0.2,1.2,0.3,1.8,0.3c2,0,3.9-1.2,4.7-3.2c2.7-7.2,6.1-13.9,10-20c1.5-2.3,0.8-5.4-1.5-6.9 c-2.3-1.5-5.4-0.8-6.9,1.5c-4.3,6.7-7.9,14.1-10.9,21.9C621.2,1207.8,622.5,1210.7,625.1,1211.7z" fill="inherit"/><path d="M675.6,1152c-1.3-2.4-4.3-3.4-6.7-2.1c-1.2,0.6-2.4,1.3-3.6,2c-2.4,1.4-3.2,4.4-1.8,6.8c0.9,1.6,2.6,2.5,4.3,2.5 c0.9,0,1.7-0.2,2.5-0.7c1-0.6,2.1-1.2,3.2-1.8C675.9,1157.5,676.8,1154.5,675.6,1152z" fill="inherit"/><path d="M618.8,1267.5c-2.7,0.3-4.7,2.8-4.4,5.5c0.9,8,2.3,16,4.1,23.6c0.5,2.3,2.6,3.9,4.8,3.9c0.4,0,0.8,0,1.1-0.1 c2.7-0.6,4.3-3.3,3.7-6c-1.7-7.3-3-14.9-3.9-22.5C624,1269.2,621.5,1267.2,618.8,1267.5z" fill="inherit"/><path d="M646.4,1352.3c-2.3,1.5-3,4.6-1.5,6.9c4.3,6.7,9,13.2,14.1,19.4c1,1.2,2.4,1.8,3.9,1.8c1.1,0,2.2-0.4,3.1-1.1 c2.1-1.7,2.5-4.9,0.7-7c-4.8-5.9-9.4-12.2-13.4-18.5C651.8,1351.4,648.7,1350.8,646.4,1352.3z" fill="inherit"/><path d="M689.3,1152.2c0.4,0,0.8-0.1,1.3-0.2c5.6-1.5,11.8-2.2,18.2-2.2c1.2,0,2.4,0,3.6,0.1c2.8,0.1,5.1-2,5.2-4.8 c0.1-2.7-2-5.1-4.8-5.2c-1.4-0.1-2.7-0.1-4-0.1c-7.3,0-14.2,0.8-20.7,2.5c-2.7,0.7-4.3,3.4-3.6,6.1 C685.1,1150.8,687.1,1152.2,689.3,1152.2z" fill="inherit"/><path d="M619.7,1234.5c0.3,0.1,0.6,0.1,0.9,0.1c2.4,0,4.5-1.7,4.9-4.1c0.2-1.2,0.5-2.5,0.7-3.7c0.6-2.7-1.1-5.3-3.8-5.9 c-2.7-0.6-5.3,1.1-5.9,3.8c-0.3,1.3-0.5,2.6-0.8,4C615.2,1231.4,617,1234,619.7,1234.5z" fill="inherit"/><path d="M734,1428.4c-6.7-3.9-13.3-8-19.5-12.3c-2.3-1.6-5.4-1-6.9,1.3c-1.6,2.3-1,5.4,1.3,6.9c6.4,4.5,13.2,8.8,20.2,12.8 c0.8,0.5,1.6,0.7,2.5,0.7c1.7,0,3.4-0.9,4.3-2.5C737.2,1432.8,736.4,1429.7,734,1428.4z" fill="inherit"/><path d="M618.3,1257.9C618.3,1257.9,618.3,1257.9,618.3,1257.9c2.8,0,5-2.2,5.1-4.9c0-1.3,0.1-2.5,0.1-3.8c0.1-2.7-2-5.1-4.8-5.2 c-2.7-0.2-5.1,2-5.2,4.8c-0.1,1.3-0.1,2.7-0.1,4C613.3,1255.6,615.5,1257.9,618.3,1257.9z" fill="inherit"/><path d="M787.4,1458.3c-0.9,2.6,0.5,5.4,3.1,6.3c7.4,2.5,15.1,4.8,22.8,6.9c0.4,0.1,0.9,0.2,1.3,0.2c2.2,0,4.2-1.5,4.8-3.7 c0.7-2.7-0.8-5.4-3.5-6.1c-7.5-2-14.9-4.3-22.2-6.8C791.1,1454.3,788.2,1455.7,787.4,1458.3z" fill="inherit"/><path d="M1265.6,1316.4c-2.1-1.7-5.3-1.4-7,0.8c-0.8,1-1.6,2-2.4,3c-1.7,2.1-1.4,5.3,0.7,7c0.9,0.8,2,1.1,3.2,1.1 c1.4,0,2.9-0.6,3.9-1.8c0.8-1,1.7-2,2.5-3.1C1268.1,1321.2,1267.8,1318.1,1265.6,1316.4z" fill="inherit"/><path d="M1348.5,1157.7c-2.6-0.9-5.4,0.5-6.3,3.1c-0.4,1.2-0.9,2.4-1.3,3.7c-0.9,2.6,0.4,5.4,3,6.4c0.6,0.2,1.1,0.3,1.7,0.3 c2,0,4-1.3,4.7-3.3c0.4-1.2,0.9-2.5,1.3-3.7C1352.4,1161.4,1351.1,1158.6,1348.5,1157.7z" fill="inherit"/><path d="M1331.8,1201.6c-2.5-1.1-5.5,0.1-6.5,2.6c-3.1,7.2-6.3,14.3-9.6,21.2c-1.2,2.5-0.1,5.5,2.3,6.6c0.7,0.3,1.4,0.5,2.1,0.5 c1.9,0,3.6-1,4.5-2.8c3.4-7,6.6-14.2,9.8-21.5C1335.5,1205.6,1334.3,1202.7,1331.8,1201.6z" fill="inherit"/><path d="M1340.5,1179.8c-2.6-1-5.5,0.3-6.4,2.8c-0.5,1.2-0.9,2.4-1.4,3.6c-1,2.6,0.2,5.5,2.8,6.5c0.6,0.2,1.2,0.3,1.8,0.3 c2,0,3.9-1.2,4.6-3.2c0.5-1.2,1-2.4,1.4-3.7C1344.4,1183.7,1343.1,1180.8,1340.5,1179.8z" fill="inherit"/><path d="M1372.5,1070.9c-2.7-0.6-5.3,1.1-6,3.8c-0.3,1.3-0.6,2.5-0.9,3.8c-0.6,2.7,1.1,5.4,3.7,6c0.4,0.1,0.8,0.1,1.1,0.1 c2.3,0,4.3-1.6,4.8-3.9c0.3-1.3,0.6-2.6,0.9-3.8C1376.8,1074.2,1375.2,1071.5,1372.5,1070.9z" fill="inherit"/><path d="M1367.1,1093.7c-2.7-0.7-5.4,0.9-6.1,3.6c-0.3,1.3-0.6,2.5-1,3.8c-0.7,2.7,0.9,5.4,3.6,6.1c0.4,0.1,0.8,0.2,1.3,0.2 c2.2,0,4.2-1.5,4.8-3.7c0.3-1.3,0.7-2.5,1-3.8C1371.4,1097.1,1369.8,1094.4,1367.1,1093.7z" fill="inherit"/><path d="M1361.1,1116.5c-2.6-0.8-5.4,0.8-6.2,3.4c-2.2,7.6-4.4,15.1-6.7,22.4c-0.8,2.6,0.6,5.4,3.2,6.3c0.5,0.2,1,0.2,1.5,0.2 c2.1,0,4.1-1.4,4.7-3.5c2.4-7.4,4.6-15,6.8-22.7C1365.3,1120,1363.8,1117.2,1361.1,1116.5z" fill="inherit"/><path d="M1313.7,1240.6c-2.4-1.3-5.4-0.3-6.7,2.1c-0.6,1.1-1.2,2.3-1.8,3.4c-1.3,2.4-0.4,5.4,2,6.7c0.7,0.4,1.5,0.6,2.3,0.6 c1.8,0,3.5-1,4.4-2.6c0.6-1.2,1.2-2.3,1.8-3.5C1317,1244.9,1316.1,1241.9,1313.7,1240.6z" fill="inherit"/><path d="M1243.6,1334.8c-0.9,1-1.7,1.9-2.6,2.9c-1.9,2-1.7,5.2,0.3,7c1,0.9,2.2,1.3,3.4,1.3c1.3,0,2.7-0.5,3.7-1.6 c0.9-1,1.8-1.9,2.7-2.9c1.8-2,1.7-5.2-0.3-7C1248.6,1332.6,1245.4,1332.7,1243.6,1334.8z" fill="inherit"/><path d="M1290.4,1281.3c-2.3-1.5-5.4-0.9-6.9,1.5c-4.2,6.5-8.7,12.9-13.2,19.1c-1.6,2.2-1.1,5.3,1.1,7c0.9,0.6,1.9,1,2.9,1 c1.5,0,3.1-0.7,4-2c4.6-6.3,9.1-12.9,13.5-19.5C1293.4,1285.9,1292.7,1282.8,1290.4,1281.3z" fill="inherit"/><path d="M1302.5,1261.2c-2.4-1.4-5.4-0.6-6.8,1.8c-0.7,1.1-1.3,2.2-2,3.3c-1.4,2.4-0.6,5.4,1.7,6.8c0.8,0.5,1.7,0.7,2.5,0.7 c1.7,0,3.4-0.9,4.3-2.4c0.7-1.1,1.3-2.3,2-3.4C1305.7,1265.6,1304.9,1262.6,1302.5,1261.2z" fill="inherit"/><path d="M1227.5,1351.5c-5.5,5.4-11.3,10.7-17.1,15.6c-2.1,1.8-2.3,4.9-0.5,7c1,1.1,2.4,1.7,3.8,1.7c1.1,0,2.3-0.4,3.2-1.2 c5.9-5.1,11.8-10.5,17.5-16.1c2-1.9,2-5.1,0.1-7C1232.6,1349.6,1229.5,1349.5,1227.5,1351.5z" fill="inherit"/><path d="M1380.8,1028.6c-2.7-0.5-5.3,1.3-5.8,4c-1.4,7.7-2.9,15.4-4.4,22.9c-0.6,2.7,1.2,5.3,3.9,5.9c0.3,0.1,0.7,0.1,1,0.1 c2.3,0,4.4-1.6,4.9-4c1.6-7.6,3.1-15.4,4.5-23.2C1385.3,1031.7,1383.5,1029.1,1380.8,1028.6z" fill="inherit"/><path d="M1399.7,826.1c-2.7-0.1-5,2.1-5.1,4.8l-0.1,3.9c-0.1,2.7,2.1,5,4.8,5.1c0.1,0,0.1,0,0.2,0c2.7,0,4.9-2.1,5-4.8 c0-1.3,0.1-2.6,0.1-3.9C1404.6,828.5,1402.4,826.2,1399.7,826.1z" fill="inherit"/><path d="M1400.2,802.6c-2.7,0-5,2.1-5.1,4.9l-0.1,3.9c-0.1,2.8,2.1,5,4.9,5.1c0,0,0.1,0,0.1,0c2.7,0,4.9-2.2,5-4.9l0.1-3.9 C1405.2,804.9,1403,802.7,1400.2,802.6z" fill="inherit"/><path d="M1396.7,892.6c-2.8-0.2-5.1,1.9-5.3,4.6l-0.3,3.9c-0.2,2.7,1.9,5.1,4.6,5.3c0.1,0,0.2,0,0.4,0c2.6,0,4.8-2,5-4.6l0.3-3.9 C1401.5,895.2,1399.4,892.8,1396.7,892.6z" fill="inherit"/><path d="M1398.9,849.6c-2.8-0.1-5.1,2-5.2,4.8c-0.3,7.9-0.7,15.8-1.1,23.4c-0.2,2.7,1.9,5.1,4.7,5.3c0.1,0,0.2,0,0.3,0 c2.6,0,4.8-2.1,5-4.7c0.4-7.7,0.8-15.6,1.2-23.5C1403.8,852,1401.7,849.7,1398.9,849.6z" fill="inherit"/><path d="M1387.9,982.2c-2.7-0.4-5.2,1.5-5.6,4.3c-0.2,1.3-0.4,2.6-0.5,3.9c-0.4,2.7,1.5,5.2,4.2,5.6c0.2,0,0.5,0,0.7,0 c2.4,0,4.6-1.8,4.9-4.3c0.2-1.3,0.4-2.6,0.5-3.9C1392.6,985.1,1390.7,982.6,1387.9,982.2z" fill="inherit"/><path d="M1384.6,1005.5c-2.7-0.4-5.3,1.4-5.7,4.1c-0.2,1.3-0.4,2.6-0.6,3.8c-0.4,2.7,1.4,5.3,4.1,5.7c0.3,0,0.5,0.1,0.8,0.1 c2.4,0,4.5-1.7,4.9-4.2c0.2-1.3,0.4-2.6,0.6-3.9C1389.2,1008.4,1387.3,1005.9,1384.6,1005.5z" fill="inherit"/><path d="M1395,916c-2.7-0.2-5.2,1.8-5.4,4.5l-0.3,3.9c-0.2,2.7,1.8,5.2,4.5,5.4c0.1,0,0.3,0,0.4,0c2.6,0,4.7-2,5-4.5l0.3-3.9 C1399.7,918.7,1397.7,916.3,1395,916z" fill="inherit"/><path d="M1392.9,939.4c-2.7-0.3-5.2,1.7-5.5,4.5c-0.8,7.8-1.7,15.6-2.6,23.3c-0.3,2.7,1.6,5.2,4.3,5.5c0.2,0,0.4,0,0.6,0 c2.5,0,4.6-1.9,4.9-4.4c0.9-7.7,1.8-15.6,2.6-23.4C1397.6,942.2,1395.6,939.7,1392.9,939.4z" fill="inherit"/><path d="M992,1469.1c-7.6,1.4-15.3,2.5-22.9,3.5c-2.7,0.3-4.7,2.8-4.3,5.6c0.3,2.5,2.5,4.4,4.9,4.4c0.2,0,0.4,0,0.6,0 c7.8-1,15.7-2.2,23.5-3.6c2.7-0.5,4.5-3.1,4-5.8C997.3,1470.4,994.7,1468.6,992,1469.1z" fill="inherit"/><path d="M874.9,1478.3c-0.3,2.7,1.7,5.2,4.5,5.5c7.9,0.8,15.9,1.4,23.7,1.7c0.1,0,0.1,0,0.2,0c2.7,0,4.9-2.1,5-4.8 c0.1-2.7-2-5.1-4.8-5.2c-7.6-0.3-15.4-0.8-23.1-1.6C877.6,1473.6,875.2,1475.5,874.9,1478.3z" fill="inherit"/><path d="M928.6,1476c-0.1-1.3-0.8-2.5-1.8-3.3c-2.1-1.7-5.3-1.4-7,0.8c-0.8,1-1.6,2-2.5,3.1c-1.7,2.1-1.4,5.3,0.7,7 c0.5,0.4,1,0.6,1.5,0.8c0.9,0.8,2.1,1.3,3.4,1.3c0,0,0,0,0.1,0c1.3,0,2.6,0,4-0.1c2.8-0.1,4.9-2.3,4.9-5.1 C931.7,1478.4,930.4,1476.7,928.6,1476z" fill="inherit"/><path d="M861.2,1471.4c-1.3-0.2-2.5-0.4-3.8-0.6c-2.7-0.4-5.3,1.4-5.7,4.1c-0.4,2.7,1.4,5.3,4.1,5.7c1.3,0.2,2.6,0.4,3.9,0.6 c0.3,0,0.5,0.1,0.7,0.1c2.4,0,4.6-1.8,4.9-4.2C865.8,1474.4,863.9,1471.8,861.2,1471.4z" fill="inherit"/><path d="M949.8,1474.5c-1.3,0.1-2.6,0.2-3.9,0.3c-2.7,0.2-4.8,2.6-4.6,5.3c0.2,2.6,2.4,4.6,5,4.6c0.1,0,0.2,0,0.3,0 c1.3-0.1,2.6-0.2,3.9-0.3c2.7-0.2,4.8-2.6,4.6-5.4C955,1476.3,952.6,1474.3,949.8,1474.5z" fill="inherit"/><path d="M754.4,1439.2c-1.2-0.6-2.3-1.1-3.5-1.7c-2.5-1.2-5.5-0.2-6.7,2.2c-1.2,2.5-0.2,5.5,2.2,6.7c1.2,0.6,2.4,1.2,3.6,1.7 c0.7,0.3,1.4,0.5,2.2,0.5c1.9,0,3.6-1,4.5-2.8C757.9,1443.3,756.9,1440.3,754.4,1439.2z" fill="inherit"/><path d="M1014.7,1464.4c-1.3,0.3-2.5,0.6-3.8,0.9c-2.7,0.6-4.4,3.3-3.8,6c0.5,2.3,2.6,3.9,4.9,3.9c0.4,0,0.7,0,1.1-0.1 c1.3-0.3,2.6-0.6,3.8-0.9c2.7-0.6,4.3-3.3,3.7-6C1020.1,1465.4,1017.4,1463.7,1014.7,1464.4z" fill="inherit"/><path d="M699.9,1411.5c1.7-2.1,1.4-5.3-0.7-7c-1-0.8-2-1.6-2.9-2.4c-2.1-1.8-5.2-1.5-7,0.6c-1.8,2.1-1.5,5.2,0.6,7 c1,0.9,2,1.7,3.1,2.5c0.9,0.7,2,1.1,3.1,1.1C697.5,1413.4,698.9,1412.7,699.9,1411.5z" fill="inherit"/><path d="M837.4,1477.2c2.3,0,4.4-1.6,4.9-4c0.6-2.7-1.2-5.3-3.8-5.9c-1.3-0.3-2.5-0.5-3.8-0.8c-2.7-0.6-5.3,1.1-5.9,3.8 c-0.6,2.7,1.1,5.3,3.8,5.9c1.3,0.3,2.6,0.6,3.9,0.8C836.7,1477.2,837,1477.2,837.4,1477.2z" fill="inherit"/><path d="M775.6,1448.5c-1.2-0.5-2.4-1-3.6-1.5c-2.5-1-5.5,0.2-6.5,2.7c-1.1,2.5,0.2,5.5,2.7,6.5c1.2,0.5,2.4,1,3.7,1.5 c0.6,0.2,1.2,0.4,1.8,0.4c2,0,3.8-1.2,4.6-3.1C779.4,1452.4,778.1,1449.5,775.6,1448.5z" fill="inherit"/><path d="M1077.5,1444.9c-7.2,2.8-14.6,5.4-21.8,7.9c-2.6,0.9-4,3.7-3.2,6.3c0.7,2.1,2.6,3.4,4.7,3.4c0.5,0,1.1-0.1,1.6-0.3 c7.4-2.5,14.9-5.2,22.3-8c2.6-1,3.8-3.9,2.8-6.4C1082.9,1445.2,1080,1443.9,1077.5,1444.9z" fill="inherit"/><path d="M1119.9,1426.1c-1.2,0.6-2.3,1.2-3.5,1.7c-2.5,1.2-3.5,4.2-2.3,6.7c0.9,1.8,2.6,2.8,4.5,2.8c0.7,0,1.5-0.2,2.2-0.5 c1.2-0.6,2.4-1.2,3.5-1.8c2.5-1.2,3.5-4.2,2.2-6.7C1125.4,1425.8,1122.4,1424.8,1119.9,1426.1z" fill="inherit"/><path d="M1176.7,1392.7c-1.1,0.7-2.1,1.4-3.2,2.2c-2.3,1.5-2.9,4.6-1.4,6.9c1,1.4,2.5,2.2,4.1,2.2c1,0,1.9-0.3,2.8-0.8 c1.1-0.7,2.2-1.5,3.3-2.2c2.3-1.5,2.9-4.6,1.3-6.9C1182.1,1391.8,1179,1391.2,1176.7,1392.7z" fill="inherit"/><path d="M682.1,1396.3c1.9-2,1.9-5.1,0-7c-0.9-0.9-1.8-1.8-2.7-2.7c-1.9-2-5.1-2-7-0.1c-2,1.9-2,5.1-0.1,7c0.9,1,1.9,1.9,2.8,2.8 c1,1,2.2,1.4,3.5,1.4C679.9,1397.7,681.2,1397.2,682.1,1396.3z" fill="inherit"/><path d="M1157.2,1405.4c-6.6,4-13.3,8-20.1,11.7c-2.4,1.3-3.3,4.4-2,6.8c0.9,1.6,2.6,2.6,4.4,2.6c0.8,0,1.6-0.2,2.4-0.6 c6.9-3.8,13.8-7.8,20.5-11.9c2.3-1.4,3.1-4.5,1.6-6.9C1162.6,1404.7,1159.5,1403.9,1157.2,1405.4z" fill="inherit"/><path d="M1037.2,1458.5c-1.2,0.4-2.5,0.7-3.7,1.1c-2.7,0.7-4.2,3.5-3.5,6.1c0.6,2.2,2.6,3.6,4.8,3.6c0.4,0,0.9-0.1,1.3-0.2 c1.3-0.4,2.5-0.7,3.8-1.1c2.6-0.8,4.2-3.5,3.4-6.2C1042.6,1459.3,1039.8,1457.7,1037.2,1458.5z" fill="inherit"/><path d="M1195.5,1379.2c-1,0.8-2,1.6-3.1,2.3c-2.2,1.7-2.6,4.8-1,7c1,1.3,2.5,2,4,2c1,0,2.1-0.3,3-1c1.1-0.8,2.1-1.6,3.2-2.4 c2.2-1.7,2.6-4.8,0.9-7C1200.8,1378,1197.7,1377.6,1195.5,1379.2z" fill="inherit"/><path d="M1098.9,1436c-1.2,0.5-2.4,1-3.5,1.6c-2.5,1.1-3.7,4-2.6,6.6c0.8,1.9,2.6,3,4.6,3c0.7,0,1.3-0.1,2-0.4 c1.2-0.5,2.4-1.1,3.6-1.6c2.5-1.1,3.7-4.1,2.5-6.6C1104.4,1436,1101.4,1434.9,1098.9,1436z" fill="inherit"/><path d="M1400.7,771.1C1400.7,771.1,1400.6,771.1,1400.7,771.1c-2.8,0-5,2.2-5.1,4.9l-0.2,11.9c0,2.8,2.2,5,4.9,5.1c0,0,0,0,0.1,0 c2.7,0,4.9-2.2,5-4.9l0.2-12C1405.6,773.4,1403.4,771.2,1400.7,771.1z" fill="inherit"/><circle cx="339.5" cy="1758.9" fill="inherit" r="18.1"/><path d="M339.5,1717.8c-22.7,0-41.1,18.4-41.1,41.1s18.4,41.1,41.1,41.1c22.7,0,41.1-18.4,41.1-41.1S362.1,1717.8,339.5,1717.8z M339.5,1790c-17.2,0-31.1-14-31.1-31.1c0-17.2,14-31.1,31.1-31.1s31.1,14,31.1,31.1C370.6,1776.1,356.6,1790,339.5,1790z" fill="inherit"/></g></svg>