<?xml version="1.0" encoding="UTF-8" standalone="no"?><svg xmlns="http://www.w3.org/2000/svg" xmlns:xlink="http://www.w3.org/1999/xlink" fill="#152171" height="500" preserveAspectRatio="xMidYMid meet" version="1" viewBox="20.5 0.0 459.0 500.0" width="459" zoomAndPan="magnify"><g><g id="change1_1"><path d="M360.1,152.8c0-60.7-49.4-110.1-110.1-110.1S139.9,92.1,139.9,152.8c0,54.6,39.9,100,92.1,108.6h-1.9 l19.9,35.9l19.9-35.9H268C320.2,252.8,360.1,207.3,360.1,152.8z" fill="#c81113"/></g><g id="change2_2"><path d="M430.6,251h-60.9c13.6-14.5,24.4-30.5,31-46.6c15.9-0.7,28.5-13.9,28.5-29.9v-18.7c0-16.1-12.8-29.3-28.9-29.9 c-6.2-34.6-24.3-66.3-51.2-89.3C321.6,13,286.3,0,250,0c-72.5,0-135.2,51.3-149.7,122.2c-16.3,0.3-29.4,13.6-29.4,29.9v18.7 c0,16.5,13.4,29.9,29.9,29.9h3c3.6,0,6.5-2.9,6.5-6.5l0-48.7C114.2,71.2,175.5,13,250,13c77.1,0,139.8,62.7,139.8,139.8v44.1 c-9.3,24.3-30.1,49.8-55.8,68.3c-5.1-3.1-11.6-3.6-17.1-1.1L280.8,280c-4.5,2-8,5.6-9.7,10.2c-1.8,4.6-1.6,9.6,0.4,14.1l1.3,2.8 c3,6.6,9.6,10.9,16.9,10.9c2.6,0,5.1-0.5,7.5-1.6l36.1-16.1c9.3-4.1,13.5-15.1,9.3-24.4l-0.4-0.9c5.2-3.8,10.2-7.8,15-12h73.5 c20.3,0,36.7,16.5,36.7,36.7v151.2c0,20.3-16.5,36.7-36.7,36.7H69.4c-20.3,0-36.7-16.5-36.7-36.7V299.9c0-20.3,16.5-36.7,36.7-36.7 h85.4V251H69.4c-27,0-48.9,21.9-48.9,48.9v151.2c0,27,21.9,48.9,48.9,48.9h361.2c27,0,48.9-21.9,48.9-48.9V299.9 C479.5,273,457.6,251,430.6,251z"/></g><g><g id="change2_1"><path d="M70.8,436.6l15.7-1c0.3,2.6,1,4.5,2.1,5.8c1.7,2.2,4.1,3.3,7.3,3.3c2.4,0,4.2-0.6,5.5-1.7c1.3-1.1,1.9-2.4,1.9-3.9 c0-1.4-0.6-2.6-1.8-3.7c-1.2-1.1-4-2.1-8.5-3.1c-7.3-1.6-12.4-3.8-15.5-6.5c-3.1-2.7-4.7-6.1-4.7-10.3c0-2.8,0.8-5.3,2.4-7.8 c1.6-2.4,4-4.4,7.2-5.8c3.2-1.4,7.6-2.1,13.2-2.1c6.8,0,12.1,1.3,15.6,3.8c3.6,2.5,5.7,6.6,6.4,12.1l-15.6,0.9 c-0.4-2.4-1.3-4.2-2.6-5.3c-1.3-1.1-3.2-1.6-5.5-1.6c-1.9,0-3.4,0.4-4.3,1.2c-1,0.8-1.5,1.8-1.5,3c0,0.9,0.4,1.6,1.2,2.3 c0.8,0.7,2.6,1.4,5.6,2c7.2,1.6,12.4,3.1,15.5,4.7c3.1,1.6,5.4,3.6,6.8,5.9c1.4,2.4,2.1,5,2.1,7.9c0,3.4-0.9,6.6-2.8,9.5 c-1.9,2.9-4.6,5.1-8,6.6c-3.4,1.5-7.7,2.2-12.9,2.2c-9.1,0-15.4-1.8-18.9-5.3C73.3,446.4,71.3,442,70.8,436.6z"/><path d="M127.7,400.8H172v11.4h-27.8v8.5H170v10.9h-25.7v10.6h28.6v12.1h-45.1V400.8z"/><path d="M182,454.3v-53.5h27.6c5.1,0,9,0.4,11.7,1.3c2.7,0.9,4.9,2.5,6.5,4.9c1.7,2.4,2.5,5.3,2.5,8.7c0,3-0.6,5.5-1.9,7.7 c-1.3,2.2-3,3.9-5.2,5.2c-1.4,0.9-3.3,1.6-5.8,2.1c2,0.7,3.4,1.3,4.3,2c0.6,0.4,1.5,1.4,2.6,2.8c1.2,1.4,1.9,2.5,2.3,3.3l8,15.5 h-18.7l-8.8-16.4c-1.1-2.1-2.1-3.5-3-4.1c-1.2-0.8-2.5-1.2-4.1-1.2h-1.5v21.7H182z M198.6,422.5h7c0.8,0,2.2-0.2,4.4-0.7 c1.1-0.2,2-0.8,2.7-1.7c0.7-0.9,1-1.9,1-3.1c0-1.7-0.5-3.1-1.6-4c-1.1-0.9-3.2-1.4-6.2-1.4h-7.3V422.5z"/><path d="M233.4,400.8h17.3l12,38.5l11.9-38.5h16.8l-19.9,53.5h-17.9L233.4,400.8z"/><path d="M297.5,400.8H314v53.5h-16.6V400.8z"/><path d="M361.5,432.4l14.5,4.4c-1,4.1-2.5,7.5-4.6,10.2c-2.1,2.7-4.7,4.8-7.8,6.2c-3.1,1.4-7.1,2.1-11.8,2.1 c-5.8,0-10.6-0.8-14.3-2.5c-3.7-1.7-6.9-4.7-9.5-8.9c-2.7-4.3-4-9.7-4-16.3c0-8.9,2.4-15.7,7.1-20.4c4.7-4.8,11.4-7.1,20-7.1 c6.7,0,12,1.4,15.9,4.1c3.9,2.7,6.7,6.9,8.6,12.6l-14.6,3.2c-0.5-1.6-1-2.8-1.6-3.6c-0.9-1.3-2.1-2.2-3.4-2.9 c-1.3-0.7-2.8-1-4.5-1c-3.7,0-6.6,1.5-8.6,4.5c-1.5,2.2-2.3,5.8-2.3,10.5c0,5.9,0.9,10,2.7,12.2c1.8,2.2,4.3,3.3,7.6,3.3 c3.2,0,5.6-0.9,7.2-2.7C359.6,438.4,360.8,435.8,361.5,432.4z"/><path d="M384,400.8h44.3v11.4h-27.8v8.5h25.7v10.9h-25.7v10.6h28.6v12.1H384V400.8z"/></g><g fill="#c81113" id="change1_2"><path d="M99.6,365.4l11.1,3.4c-0.7,3.1-1.9,5.7-3.5,7.8c-1.6,2.1-3.6,3.7-6,4.7c-2.4,1.1-5.4,1.6-9.1,1.6 c-4.5,0-8.1-0.6-10.9-1.9c-2.8-1.3-5.3-3.6-7.3-6.8c-2.1-3.3-3.1-7.4-3.1-12.5c0-6.8,1.8-12,5.4-15.6c3.6-3.6,8.7-5.5,15.3-5.5 c5.2,0,9.2,1,12.2,3.1c3,2.1,5.2,5.3,6.6,9.6l-11.2,2.5c-0.4-1.2-0.8-2.2-1.2-2.7c-0.7-1-1.6-1.7-2.6-2.2c-1-0.5-2.2-0.8-3.4-0.8 c-2.9,0-5.1,1.2-6.6,3.5c-1.2,1.7-1.7,4.4-1.7,8.1c0,4.5,0.7,7.7,2.1,9.3c1.4,1.7,3.3,2.5,5.8,2.5c2.4,0,4.3-0.7,5.5-2 C98.2,369.9,99.1,368,99.6,365.4z"/><path d="M143.6,341.1h12.6v24.4c0,2.4-0.4,4.7-1.1,6.9c-0.8,2.2-1.9,4-3.6,5.6c-1.6,1.6-3.3,2.7-5.1,3.4 c-2.5,0.9-5.4,1.4-8.9,1.4c-2,0-4.2-0.1-6.5-0.4c-2.4-0.3-4.3-0.8-5.9-1.7c-1.6-0.8-3-2-4.4-3.5c-1.3-1.5-2.2-3.1-2.7-4.7 c-0.8-2.6-1.2-4.9-1.2-6.9v-24.4h12.6v25c0,2.2,0.6,4,1.9,5.2c1.2,1.3,3,1.9,5.2,1.9c2.2,0,3.9-0.6,5.1-1.9 c1.2-1.2,1.9-3,1.9-5.3V341.1z"/><path d="M162.4,368.6l12.1-0.8c0.3,2,0.8,3.5,1.6,4.5c1.3,1.7,3.2,2.5,5.6,2.5c1.8,0,3.2-0.4,4.2-1.3 c1-0.8,1.5-1.8,1.5-3c0-1.1-0.5-2-1.4-2.9c-0.9-0.8-3.1-1.6-6.5-2.4c-5.6-1.2-9.5-2.9-11.9-5c-2.4-2.1-3.6-4.7-3.6-7.9 c0-2.1,0.6-4.1,1.8-6c1.2-1.9,3.1-3.3,5.5-4.4c2.5-1.1,5.8-1.6,10.1-1.6c5.2,0,9.2,1,12,2.9c2.8,1.9,4.4,5.1,4.9,9.3l-11.9,0.7 c-0.3-1.8-1-3.2-2-4c-1-0.8-2.4-1.3-4.2-1.3c-1.5,0-2.6,0.3-3.3,0.9c-0.7,0.6-1.1,1.4-1.1,2.3c0,0.7,0.3,1.2,0.9,1.8 c0.6,0.5,2,1,4.3,1.5c5.5,1.2,9.5,2.4,11.9,3.6c2.4,1.2,4.1,2.7,5.2,4.5c1.1,1.8,1.6,3.8,1.6,6.1c0,2.6-0.7,5.1-2.2,7.3 c-1.5,2.2-3.5,3.9-6.1,5.1c-2.6,1.1-5.9,1.7-9.9,1.7c-7,0-11.8-1.3-14.5-4C164.3,376.1,162.8,372.7,162.4,368.6z"/><path d="M203.1,341.1h38.5v10.1h-12.9v30.9h-12.7v-30.9h-12.9V341.1z"/><path d="M243.8,361.7c0-6.7,1.9-11.9,5.6-15.6c3.7-3.7,8.9-5.6,15.6-5.6c6.8,0,12.1,1.8,15.8,5.5 c3.7,3.7,5.5,8.8,5.5,15.4c0,4.8-0.8,8.7-2.4,11.8c-1.6,3.1-3.9,5.5-7,7.2c-3,1.7-6.9,2.6-11.4,2.6c-4.6,0-8.5-0.7-11.5-2.2 c-3-1.5-5.5-3.8-7.4-7C244.8,370.5,243.8,366.5,243.8,361.7z M256.5,361.7c0,4.1,0.8,7.1,2.3,8.9c1.5,1.8,3.6,2.7,6.3,2.7 c2.7,0,4.8-0.9,6.3-2.7c1.5-1.8,2.2-5,2.2-9.5c0-3.9-0.8-6.7-2.3-8.5c-1.6-1.8-3.7-2.7-6.3-2.7c-2.6,0-4.6,0.9-6.2,2.7 C257.3,354.6,256.5,357.5,256.5,361.7z"/><path d="M293,341.1h16.7l6.4,25l6.4-25h16.7v41h-10.4v-31.3l-8,31.3h-9.4l-8-31.3v31.3H293V341.1z"/><path d="M347.2,341.1h34v8.8h-21.3v6.5h19.7v8.4h-19.7v8.1h21.9v9.3h-34.6V341.1z"/><path d="M388.8,382.2v-41h21.1c3.9,0,6.9,0.3,9,1c2.1,0.7,3.7,1.9,5,3.7c1.3,1.8,1.9,4,1.9,6.6 c0,2.3-0.5,4.2-1.5,5.9c-1,1.7-2.3,3-4,4c-1.1,0.7-2.6,1.2-4.5,1.6c1.5,0.5,2.6,1,3.3,1.5c0.5,0.3,1.1,1.1,2,2.2 c0.9,1.1,1.5,2,1.8,2.5l6.1,11.9h-14.3l-6.8-12.5c-0.9-1.6-1.6-2.7-2.3-3.2c-0.9-0.6-1.9-1-3.1-1h-1.1v16.6H388.8z M401.5,357.8 h5.3c0.6,0,1.7-0.2,3.4-0.6c0.8-0.2,1.5-0.6,2.1-1.3c0.5-0.7,0.8-1.5,0.8-2.4c0-1.3-0.4-2.3-1.3-3c-0.8-0.7-2.4-1.1-4.7-1.1h-5.6 V357.8z"/></g></g><g fill="#ffffff" id="change3_1"><path d="M181.8,171.6l-5.8,5.6v7.1h35v-9.7h-18.4l0,0c10.1-9.7,17.2-17.4,17.2-27.4c0-8-5.2-16.1-16.9-16.1 c-5.6,0-10.9,1.9-15,5.4l-1.2,1l3.9,8.6l2.2-1.8c1.6-1.3,4.9-3.6,8.8-3.6c4.9,0,7.4,2.4,7.4,7.2 C199,154.2,193.9,160.1,181.8,171.6z"/><path d="M248.3,184.3v-13.1h6.7v-9.4h-6.7v-29.9H238L215.5,164v7.1h22.3v13.1H248.3z M228.3,161.8l9.5-13.2 l0.1-0.1c0,0,0,0,0,0v13.3H228.3z"/><path d="M286.9 129.3L277.3 129.3 255 187.2 264.5 187.2z"/><path d="M324 138.8L324 131.9 289.3 131.9 289.3 141.6 311.6 141.6 290.7 184.3 302.2 184.3z"/></g></g></svg>